# Blender v2.77 (sub 0) OBJ File: 'ArrowButHL.blend'
# www.blender.org
mtllib ArrowButHL.mtl
o arrowHL_Cube.001
v -1.000000 -0.119246 1.000000
v -1.000000 0.119246 1.000000
v 0.000000 -0.119246 -1.000000
v 0.000000 0.119246 -1.000000
v 1.000000 -0.119246 1.000000
v 1.000000 0.119246 1.000000
v 0.000000 0.119246 0.175264
v 0.000000 -0.119246 0.175264
v -0.810620 -0.119246 0.798471
v -0.851559 -0.119246 0.767258
v -0.999969 -0.119246 0.999961
v -0.856391 -0.119246 0.831590
v -0.871376 -0.119246 0.820166
v -0.069126 -0.119246 -0.739540
v 0.069126 -0.119246 -0.739540
v 0.000000 -0.119246 -0.999950
v -0.025302 -0.119246 -0.788266
v 0.025302 -0.119246 -0.788266
v -0.851559 0.119246 0.767258
v -0.810620 0.119246 0.798471
v -0.999969 0.119246 0.999961
v -0.871376 0.119246 0.820166
v -0.856391 0.119246 0.831590
v 0.069126 0.119246 -0.739540
v -0.069126 0.119246 -0.739540
v 0.000000 0.119246 -0.999950
v 0.025302 0.119246 -0.788266
v -0.025302 0.119246 -0.788266
v 0.810620 0.119246 0.798471
v 0.851559 0.119246 0.767258
v 0.999969 0.119246 0.999961
v 0.856391 0.119246 0.831590
v 0.871376 0.119246 0.820166
v 0.851559 -0.119246 0.767258
v 0.810620 -0.119246 0.798471
v 0.999969 -0.119246 0.999961
v 0.871376 -0.119246 0.820166
v 0.856391 -0.119246 0.831590
v 0.110066 -0.119246 0.149835
v -0.110066 -0.119246 0.149835
v 0.000000 -0.119246 0.175214
v 0.040287 -0.119246 0.112534
v -0.040287 -0.119246 0.112534
v -0.110066 0.119246 0.149835
v 0.110066 0.119246 0.149835
v 0.000000 0.119246 0.175214
v -0.040287 0.119246 0.112534
v 0.040287 0.119246 0.112534
v -0.000000 -0.122133 -1.036678
v -1.023042 -0.122075 1.028941
v -1.023042 0.122075 1.028941
v 0.000000 0.122133 -1.036678
v 1.023042 0.122075 1.028941
v 1.023042 -0.122075 1.028941
v 0.000000 -0.123865 0.196028
v 0.000000 0.123865 0.196028
v -0.999969 -0.124487 0.999961
v -0.829927 -0.123024 0.774917
v -0.856119 -0.123798 0.809811
v -0.850446 -0.123798 0.814136
v -0.823734 -0.123024 0.779639
v -0.000000 -0.124487 -0.999950
v -0.044696 -0.123107 -0.722620
v -0.014841 -0.123497 -0.764789
v 0.014841 -0.123497 -0.764789
v 0.044696 -0.123107 -0.722620
v -0.999969 0.124487 0.999961
v -0.823734 0.123024 0.779639
v -0.850446 0.123798 0.814136
v -0.856119 0.123798 0.809811
v -0.829927 0.123024 0.774917
v 0.000000 0.124487 -0.999950
v 0.044696 0.123107 -0.722620
v 0.014841 0.123497 -0.764789
v -0.014841 0.123497 -0.764789
v -0.044696 0.123107 -0.722620
v 0.999969 0.124487 0.999961
v 0.829927 0.123024 0.774917
v 0.856119 0.123798 0.809811
v 0.850446 0.123798 0.814136
v 0.823734 0.123024 0.779639
v 0.999969 -0.124487 0.999961
v 0.823734 -0.123024 0.779639
v 0.850446 -0.123798 0.814136
v 0.856119 -0.123798 0.809811
v 0.829927 -0.123024 0.774917
v 0.000000 -0.124487 0.175214
v 0.128772 -0.122807 0.123573
v 0.048344 -0.122686 0.080369
v -0.048344 -0.122686 0.080369
v -0.128772 -0.122807 0.123573
v 0.000000 0.124487 0.175214
v -0.128772 0.122807 0.123573
v -0.048344 0.122686 0.080369
v 0.048344 0.122686 0.080369
v 0.128772 0.122807 0.123573
v -0.000000 -0.117803 -0.981660
v -0.988478 -0.117832 0.985529
v -0.988478 0.117832 0.985529
v 0.000000 0.117803 -0.981660
v 0.988478 0.117832 0.985529
v 0.988478 -0.117832 0.985529
v -0.000000 -0.116937 0.164881
v 0.000000 0.116937 0.164881
v -0.999969 -0.116626 0.999961
v -0.800965 -0.117357 0.810248
v -0.856528 -0.116970 0.842481
v -0.881842 -0.116970 0.823181
v -0.865473 -0.117357 0.761067
v -0.000000 -0.116626 -0.999950
v -0.081342 -0.117316 -0.748000
v -0.030533 -0.117121 -0.800005
v 0.030533 -0.117121 -0.800005
v 0.081342 -0.117316 -0.748000
v -0.999969 0.116626 0.999961
v -0.865473 0.117357 0.761067
v -0.881842 0.116970 0.823181
v -0.856528 0.116970 0.842481
v -0.800965 0.117357 0.810248
v 0.000000 0.116626 -0.999950
v 0.081342 0.117316 -0.748000
v 0.030533 0.117121 -0.800005
v -0.030533 0.117121 -0.800005
v -0.081342 0.117316 -0.748000
v 0.999969 0.116626 0.999961
v 0.800965 0.117357 0.810248
v 0.856528 0.116970 0.842481
v 0.881842 0.116970 0.823181
v 0.865473 0.117357 0.761067
v 0.999969 -0.116626 0.999961
v 0.865473 -0.117357 0.761067
v 0.881842 -0.116970 0.823181
v 0.856528 -0.116970 0.842481
v 0.800965 -0.117357 0.810248
v -0.000000 -0.116626 0.175214
v 0.100712 -0.117466 0.162967
v 0.036258 -0.117527 0.128617
v -0.036258 -0.117527 0.128617
v -0.100712 -0.117466 0.162967
v 0.000000 0.116626 0.175214
v -0.100712 0.117466 0.162967
v -0.036258 0.117527 0.128617
v 0.036258 0.117527 0.128617
v 0.100712 0.117466 0.162967
v -0.000000 -0.123878 -1.053071
v -1.031157 -0.124274 1.037712
v -1.031157 0.124274 1.037712
v 0.000000 0.123878 -1.053071
v 1.031157 0.124274 1.037712
v 1.031157 -0.124274 1.037712
v 0.000000 -0.126156 0.206692
v -0.000000 0.126156 0.206692
v -1.001191 -0.127102 0.999484
v -0.841868 -0.124824 0.764313
v -0.853841 -0.122251 0.827399
v -0.869932 -0.122622 0.816576
v -0.811095 -0.124921 0.788013
v -0.000000 -0.127104 -1.001087
v -0.032594 -0.125088 -0.714846
v -0.010128 -0.125663 -0.753349
v 0.010128 -0.125663 -0.753349
v 0.032594 -0.125088 -0.714846
v -1.001190 0.127102 0.999484
v -0.811095 0.124921 0.788013
v -0.869932 0.122622 0.816576
v -0.853841 0.122251 0.827399
v -0.841868 0.124824 0.764313
v 0.000000 0.127104 -1.001087
v 0.032594 0.125088 -0.714846
v 0.010128 0.125663 -0.753349
v -0.010128 0.125663 -0.753349
v -0.032594 0.125088 -0.714846
v 1.001191 0.127102 0.999484
v 0.841868 0.124824 0.764313
v 0.853841 0.122251 0.827399
v 0.869932 0.122622 0.816576
v 0.811095 0.124921 0.788013
v 1.001190 -0.127102 0.999484
v 0.811095 -0.124921 0.788013
v 0.869932 -0.122622 0.816576
v 0.853841 -0.122251 0.827399
v 0.841868 -0.124824 0.764313
v 0.000000 -0.127104 0.174219
v 0.138194 -0.124560 0.110235
v 0.052592 -0.124274 0.063419
v -0.052592 -0.124274 0.063419
v -0.138194 -0.124560 0.110235
v -0.000000 0.127104 0.174219
v -0.138194 0.124560 0.110235
v -0.052592 0.124274 0.063419
v 0.052592 0.124274 0.063419
v 0.138194 0.124560 0.110235
vn -0.8944 0.0000 -0.4472
vn 0.0000 -1.0000 0.0000
vn 0.8944 0.0000 -0.4472
vn 0.6363 0.0000 0.7715
vn -0.6363 0.0000 0.7715
vn 0.0000 1.0000 0.0000
vn 0.8875 0.0000 0.4608
vn -0.8875 0.0000 0.4608
vn 0.6794 0.0000 -0.7338
vn 0.5862 0.0000 -0.8102
vn -0.6063 0.0000 -0.7952
vn -0.9365 0.0000 0.3508
vn -0.7435 -0.0000 0.6687
vn 0.0000 0.0000 1.0000
vn 0.7435 0.0000 0.6687
vn -0.5862 0.0000 -0.8102
vn 0.6063 0.0000 -0.7952
vn 0.9365 0.0000 0.3508
vn -0.4714 0.0000 -0.8819
vn 0.0000 0.0000 -1.0000
vn 0.4714 0.0000 -0.8819
vn -0.6794 0.0000 -0.7338
vn 0.8961 0.0000 0.4438
vn 0.0140 0.9999 0.0068
vn -0.8961 0.0000 0.4438
vn -0.6314 0.0000 -0.7755
vn 0.6314 0.0000 -0.7755
vn -0.0140 0.9999 0.0068
vn -0.0008 1.0000 -0.0016
vn 0.0008 -1.0000 -0.0016
vn 0.0008 1.0000 -0.0016
vn 0.0140 -0.9999 0.0068
vn -0.8877 0.0000 -0.4604
vn -0.0008 -1.0000 -0.0016
vn 0.8877 -0.0000 -0.4604
vn -0.0140 -0.9999 0.0068
vn -0.6806 0.0000 0.7327
vn -0.7727 -0.2453 -0.5854
vn 0.0018 -1.0000 -0.0023
vn 0.4835 0.7827 0.3920
vn 0.0078 1.0000 -0.0037
vn 0.0000 1.0000 -0.0042
vn -0.0078 1.0000 -0.0037
vn 0.4835 -0.7827 0.3920
vn 0.0018 1.0000 -0.0023
vn -0.7727 0.2453 -0.5854
vn -0.0078 -1.0000 -0.0037
vn 0.0000 -1.0000 -0.0042
vn 0.0078 -1.0000 -0.0037
vn 0.7727 0.2453 -0.5854
vn -0.0018 1.0000 -0.0023
vn -0.4835 -0.7827 0.3920
vn -0.4835 0.7827 0.3920
vn -0.0018 -1.0000 -0.0023
vn 0.7727 -0.2453 -0.5854
vn -0.0068 0.9999 0.0155
vn 0.0000 0.9998 0.0190
vn 0.0068 0.9999 0.0155
vn 0.0068 -0.9999 0.0155
vn 0.0000 -0.9998 0.0190
vn -0.0068 -0.9999 0.0155
vn -0.7998 0.0000 0.6003
vn 0.7907 0.0000 -0.6122
vn 0.8162 -0.0000 -0.5778
vn -0.8162 0.0000 -0.5778
vn 0.7998 0.0000 0.6003
vn -0.7907 0.0000 -0.6122
vn 0.4732 0.0000 0.8809
vn -0.4732 -0.0000 0.8809
vn 0.6806 0.0000 0.7327
vn 0.8935 0.0000 0.4490
vn -0.0285 0.9995 -0.0140
vn -0.8935 0.0000 0.4490
vn -0.6388 0.0000 -0.7694
vn 0.6388 0.0000 -0.7694
vn 0.0285 0.9995 -0.0140
vn 0.0013 1.0000 0.0022
vn -0.0013 -1.0000 0.0022
vn -0.0013 1.0000 0.0022
vn -0.0285 -0.9995 -0.0140
vn -0.8874 0.0000 -0.4611
vn 0.0013 -1.0000 0.0022
vn 0.8874 0.0000 -0.4611
vn 0.0285 -0.9995 -0.0140
vn -0.6788 0.0000 0.7343
vn 0.0121 0.9999 0.0088
vn 0.0010 1.0000 -0.0013
vn -0.0106 0.9999 -0.0090
vn -0.0015 1.0000 0.0022
vn 0.0000 1.0000 0.0025
vn 0.0015 1.0000 0.0022
vn -0.0106 -0.9999 -0.0090
vn 0.0010 -1.0000 -0.0013
vn 0.0121 -0.9999 0.0088
vn 0.0015 -1.0000 0.0022
vn 0.0000 -1.0000 0.0025
vn -0.0015 -1.0000 0.0022
vn -0.0121 -0.9999 0.0088
vn -0.0010 -1.0000 -0.0013
vn 0.0106 -0.9999 -0.0090
vn 0.0106 0.9999 -0.0090
vn -0.0010 1.0000 -0.0013
vn -0.0121 0.9999 0.0088
vn 0.0066 0.9999 -0.0142
vn 0.0000 0.9998 -0.0193
vn -0.0066 0.9999 -0.0142
vn -0.0066 -0.9999 -0.0142
vn 0.0000 -0.9998 -0.0193
vn 0.0066 -0.9999 -0.0142
vn -0.5018 0.0000 0.8650
vn 0.6063 0.0000 0.7952
vn 0.9670 0.0000 -0.2548
vn 0.7153 0.0000 -0.6988
vn -0.7153 -0.0000 -0.6988
vn 0.5018 0.0000 0.8650
vn -0.6063 0.0000 0.7952
vn -0.9670 0.0000 -0.2548
vn 0.4703 0.0000 0.8825
vn -0.4703 0.0000 0.8825
vn 0.6788 0.0000 0.7343
vn -0.8969 0.0000 -0.4423
vn -0.0121 -0.9999 -0.0058
vn 0.8969 0.0000 -0.4423
vn 0.6275 0.0000 0.7786
vn -0.6275 0.0000 0.7786
vn 0.0121 -0.9999 -0.0058
vn -0.0016 -1.0000 -0.0010
vn 0.0016 1.0000 -0.0010
vn 0.0016 -1.0000 -0.0010
vn -0.0121 0.9999 -0.0058
vn 0.8879 0.0000 0.4600
vn -0.0016 1.0000 -0.0010
vn -0.8879 0.0000 0.4600
vn 0.0121 0.9999 -0.0058
vn 0.6808 0.0000 -0.7324
vn -0.1028 0.9929 -0.0600
vn 0.0267 -0.9996 -0.0053
vn 0.0777 0.9938 0.0801
vn -0.0168 -0.9998 0.0051
vn 0.0000 -1.0000 0.0058
vn 0.0168 -0.9998 0.0051
vn 0.0777 -0.9938 0.0801
vn 0.0267 0.9996 -0.0053
vn -0.1028 -0.9929 -0.0600
vn 0.0168 0.9998 0.0051
vn 0.0000 1.0000 0.0058
vn -0.0168 0.9998 0.0051
vn 0.1028 -0.9929 -0.0600
vn -0.0267 0.9996 -0.0053
vn -0.0777 -0.9938 0.0801
vn -0.0777 0.9938 0.0801
vn -0.0267 -0.9996 -0.0053
vn 0.1028 0.9929 -0.0600
vn 0.0084 -0.9997 -0.0215
vn 0.0000 -0.9997 -0.0255
vn -0.0084 -0.9997 -0.0215
vn -0.0084 0.9997 -0.0215
vn 0.0000 0.9997 -0.0255
vn 0.0084 0.9997 -0.0215
vn 0.9825 -0.0000 -0.1865
vn -0.5581 0.0000 -0.8298
vn -0.4367 0.0000 0.8996
vn -0.8637 0.0000 0.5040
vn 0.8637 -0.0000 0.5040
vn -0.9825 0.0000 -0.1865
vn 0.5581 0.0000 -0.8298
vn 0.4367 -0.0000 0.8996
vn -0.4798 0.0000 -0.8774
vn 0.4798 -0.0000 -0.8774
vn -0.6808 0.0000 -0.7324
usemtl None
s off
f 1//1 2//1 4//1 3//1
f 3//2 16//2 14//2 10//2 11//2 1//2
f 3//3 4//3 6//3 5//3
f 1//4 8//4 7//4 2//4
f 5//5 6//5 7//5 8//5
f 5//2 36//2 34//2 15//2 16//2 3//2
f 1//2 11//2 9//2 40//2 41//2 8//2
f 6//6 31//6 29//6 45//6 46//6 7//6
f 8//2 41//2 39//2 35//2 36//2 5//2
f 2//6 21//6 19//6 25//6 26//6 4//6
f 10//7 14//7 25//7 19//7
f 7//6 46//6 44//6 20//6 21//6 2//6
f 15//8 34//8 30//8 24//8
f 4//6 26//6 24//6 30//6 31//6 6//6
f 35//9 39//9 45//9 29//9
f 9//2 11//2 12//2
f 12//2 11//2 13//2
f 13//2 11//2 10//2
f 14//2 16//2 17//2
f 17//2 16//2 18//2
f 18//2 16//2 15//2
f 19//6 21//6 22//6
f 22//6 21//6 23//6
f 23//6 21//6 20//6
f 24//6 26//6 27//6
f 27//6 26//6 28//6
f 28//6 26//6 25//6
f 29//6 31//6 32//6
f 32//6 31//6 33//6
f 33//6 31//6 30//6
f 34//2 36//2 37//2
f 37//2 36//2 38//2
f 38//2 36//2 35//2
f 39//2 41//2 42//2
f 42//2 41//2 43//2
f 43//2 41//2 40//2
f 44//6 46//6 47//6
f 47//6 46//6 48//6
f 48//6 46//6 45//6
f 29//10 32//10 38//10 35//10
f 32//11 33//11 37//11 38//11
f 33//12 30//12 34//12 37//12
f 24//13 27//13 18//13 15//13
f 27//14 28//14 17//14 18//14
f 28//15 25//15 14//15 17//15
f 9//16 12//16 23//16 20//16
f 12//17 13//17 22//17 23//17
f 13//18 10//18 19//18 22//18
f 44//19 47//19 43//19 40//19
f 47//20 48//20 42//20 43//20
f 48//21 45//21 39//21 42//21
f 9//22 20//22 44//22 40//22
f 50//23 49//23 52//23 51//23
f 49//24 50//24 57//24 61//24 63//24 62//24
f 49//25 54//25 53//25 52//25
f 50//26 51//26 56//26 55//26
f 54//27 55//27 56//27 53//27
f 54//28 49//28 62//28 66//28 83//28 82//28
f 50//29 55//29 87//29 91//29 58//29 57//29
f 53//30 56//30 92//30 96//30 78//30 77//30
f 55//31 54//31 82//31 86//31 88//31 87//31
f 51//32 52//32 72//32 76//32 68//32 67//32
f 61//33 68//33 76//33 63//33
f 56//34 51//34 67//34 71//34 93//34 92//34
f 66//35 73//35 81//35 83//35
f 52//36 53//36 77//36 81//36 73//36 72//36
f 86//37 78//37 96//37 88//37
f 58//38 59//38 57//38
f 59//39 60//39 57//39
f 60//40 61//40 57//40
f 63//41 64//41 62//41
f 64//42 65//42 62//42
f 65//43 66//43 62//43
f 68//44 69//44 67//44
f 69//45 70//45 67//45
f 70//46 71//46 67//46
f 73//47 74//47 72//47
f 74//48 75//48 72//48
f 75//49 76//49 72//49
f 78//50 79//50 77//50
f 79//51 80//51 77//51
f 80//52 81//52 77//52
f 83//53 84//53 82//53
f 84//54 85//54 82//54
f 85//55 86//55 82//55
f 88//56 89//56 87//56
f 89//57 90//57 87//57
f 90//58 91//58 87//58
f 93//59 94//59 92//59
f 94//60 95//60 92//60
f 95//61 96//61 92//61
f 78//62 86//62 85//62 79//62
f 79//11 85//11 84//11 80//11
f 80//63 84//63 83//63 81//63
f 73//64 66//64 65//64 74//64
f 74//20 65//20 64//20 75//20
f 75//65 64//65 63//65 76//65
f 58//66 71//66 70//66 59//66
f 59//17 70//17 69//17 60//17
f 60//67 69//67 68//67 61//67
f 93//68 91//68 90//68 94//68
f 94//14 90//14 89//14 95//14
f 95//69 89//69 88//69 96//69
f 58//70 91//70 93//70 71//70
f 98//71 97//71 100//71 99//71
f 97//72 98//72 105//72 109//72 111//72 110//72
f 97//73 102//73 101//73 100//73
f 98//74 99//74 104//74 103//74
f 102//75 103//75 104//75 101//75
f 102//76 97//76 110//76 114//76 131//76 130//76
f 98//77 103//77 135//77 139//77 106//77 105//77
f 101//78 104//78 140//78 144//78 126//78 125//78
f 103//79 102//79 130//79 134//79 136//79 135//79
f 99//80 100//80 120//80 124//80 116//80 115//80
f 109//81 116//81 124//81 111//81
f 104//82 99//82 115//82 119//82 141//82 140//82
f 114//83 121//83 129//83 131//83
f 100//84 101//84 125//84 129//84 121//84 120//84
f 134//85 126//85 144//85 136//85
f 106//86 107//86 105//86
f 107//87 108//87 105//87
f 108//88 109//88 105//88
f 111//89 112//89 110//89
f 112//90 113//90 110//90
f 113//91 114//91 110//91
f 116//92 117//92 115//92
f 117//93 118//93 115//93
f 118//94 119//94 115//94
f 121//95 122//95 120//95
f 122//96 123//96 120//96
f 123//97 124//97 120//97
f 126//98 127//98 125//98
f 127//99 128//99 125//99
f 128//100 129//100 125//100
f 131//101 132//101 130//101
f 132//102 133//102 130//102
f 133//103 134//103 130//103
f 136//104 137//104 135//104
f 137//105 138//105 135//105
f 138//106 139//106 135//106
f 141//107 142//107 140//107
f 142//108 143//108 140//108
f 143//109 144//109 140//109
f 126//110 134//110 133//110 127//110
f 127//111 133//111 132//111 128//111
f 128//112 132//112 131//112 129//112
f 121//113 114//113 113//113 122//113
f 122//20 113//20 112//20 123//20
f 123//114 112//114 111//114 124//114
f 106//115 119//115 118//115 107//115
f 107//116 118//116 117//116 108//116
f 108//117 117//117 116//117 109//117
f 141//118 139//118 138//118 142//118
f 142//14 138//14 137//14 143//14
f 143//119 137//119 136//119 144//119
f 106//120 139//120 141//120 119//120
f 146//121 147//121 148//121 145//121
f 145//122 158//122 159//122 157//122 153//122 146//122
f 145//123 148//123 149//123 150//123
f 146//124 151//124 152//124 147//124
f 150//125 149//125 152//125 151//125
f 150//126 178//126 179//126 162//126 158//126 145//126
f 146//127 153//127 154//127 187//127 183//127 151//127
f 149//128 173//128 174//128 192//128 188//128 152//128
f 151//129 183//129 184//129 182//129 178//129 150//129
f 147//130 163//130 164//130 172//130 168//130 148//130
f 157//131 159//131 172//131 164//131
f 152//132 188//132 189//132 167//132 163//132 147//132
f 162//133 179//133 177//133 169//133
f 148//134 168//134 169//134 177//134 173//134 149//134
f 182//135 184//135 192//135 174//135
f 154//136 153//136 155//136
f 155//137 153//137 156//137
f 156//138 153//138 157//138
f 159//139 158//139 160//139
f 160//140 158//140 161//140
f 161//141 158//141 162//141
f 164//142 163//142 165//142
f 165//143 163//143 166//143
f 166//144 163//144 167//144
f 169//145 168//145 170//145
f 170//146 168//146 171//146
f 171//147 168//147 172//147
f 174//148 173//148 175//148
f 175//149 173//149 176//149
f 176//150 173//150 177//150
f 179//151 178//151 180//151
f 180//152 178//152 181//152
f 181//153 178//153 182//153
f 184//154 183//154 185//154
f 185//155 183//155 186//155
f 186//156 183//156 187//156
f 189//157 188//157 190//157
f 190//158 188//158 191//158
f 191//159 188//159 192//159
f 174//160 175//160 181//160 182//160
f 175//161 176//161 180//161 181//161
f 176//162 177//162 179//162 180//162
f 169//163 170//163 161//163 162//163
f 170//14 171//14 160//14 161//14
f 171//164 172//164 159//164 160//164
f 154//165 155//165 166//165 167//165
f 155//166 156//166 165//166 166//166
f 156//167 157//167 164//167 165//167
f 189//168 190//168 186//168 187//168
f 190//20 191//20 185//20 186//20
f 191//169 192//169 184//169 185//169
f 154//170 167//170 189//170 187//170
