# Blender v2.77 (sub 0) OBJ File: 'halfMoonHL.blend'
# www.blender.org
mtllib halfMoonHL.mtl
o HalfMoonHL_Circle
v 0.000000 0.000000 -1.000000
v -0.195090 0.000000 -0.980785
v -0.382683 0.000000 -0.923880
v -0.555570 0.000000 -0.831470
v -0.707107 0.000000 -0.707107
v -0.831470 0.000000 -0.555570
v -0.923880 0.000000 -0.382683
v -0.980785 0.000000 -0.195090
v -1.000000 0.000000 -0.000000
v 1.000000 0.000000 -0.000001
v 0.980785 0.000000 -0.195091
v 0.923879 0.000000 -0.382684
v 0.831469 0.000000 -0.555571
v 0.707106 0.000000 -0.707108
v 0.555569 0.000000 -0.831470
v 0.382682 0.000000 -0.923880
v 0.195089 0.000000 -0.980786
v 0.000000 0.000000 -1.000000
v -0.195090 0.000000 -0.980785
v -0.382683 0.000000 -0.923880
v -0.555570 0.000000 -0.831470
v -0.707107 0.000000 -0.707107
v -0.831470 0.000000 -0.555570
v -0.923880 0.000000 -0.382683
v -0.980785 0.000000 -0.195090
v -1.000000 0.000000 -0.000000
v 1.000000 0.000000 -0.000001
v 0.980785 0.000000 -0.195091
v 0.923879 0.000000 -0.382684
v 0.831469 0.000000 -0.555571
v 0.707106 0.000000 -0.707108
v 0.555569 0.000000 -0.831470
v 0.382682 0.000000 -0.923880
v 0.195089 0.000000 -0.980786
v 0.000000 0.000000 -1.000000
v -0.195090 0.000000 -0.980785
v -0.382683 0.000000 -0.923880
v -0.555570 0.000000 -0.831470
v -0.707107 0.000000 -0.707107
v -0.831470 0.000000 -0.555570
v -0.923880 0.000000 -0.382683
v -0.980785 0.000000 -0.195090
v -1.000000 0.000000 -0.000000
v 1.000000 0.000000 -0.000001
v 0.980785 0.000000 -0.195091
v 0.923879 0.000000 -0.382684
v 0.831469 0.000000 -0.555571
v 0.707106 0.000000 -0.707108
v 0.555569 0.000000 -0.831470
v 0.382682 0.000000 -0.923880
v 0.195089 0.000000 -0.980786
v 0.000000 0.000000 -1.000000
v -0.195090 0.000000 -0.980785
v -0.382683 0.000000 -0.923880
v -0.555570 0.000000 -0.831470
v -0.707107 0.000000 -0.707107
v -0.831470 0.000000 -0.555570
v -0.923880 0.000000 -0.382683
v -0.980785 0.000000 -0.195090
v -1.000000 0.000000 -0.000000
v 1.000000 0.000000 -0.000001
v 0.980785 0.000000 -0.195091
v 0.923879 0.000000 -0.382684
v 0.831469 0.000000 -0.555571
v 0.707106 0.000000 -0.707108
v 0.555569 0.000000 -0.831470
v 0.382682 0.000000 -0.923880
v 0.195089 0.000000 -0.980786
v 0.000000 0.250000 -1.000000
v -0.195090 0.250000 -0.980785
v -0.382683 0.250000 -0.923880
v -0.555570 0.250000 -0.831470
v -0.707107 0.250000 -0.707107
v -0.831470 0.250000 -0.555570
v -0.923880 0.250000 -0.382683
v -0.980785 0.250000 -0.195090
v -1.000000 0.250000 -0.000000
v 1.000000 0.250000 -0.000001
v 0.980785 0.250000 -0.195091
v 0.923879 0.250000 -0.382684
v 0.831469 0.250000 -0.555571
v 0.707106 0.250000 -0.707108
v 0.555569 0.250000 -0.831470
v 0.382682 0.250000 -0.923880
v 0.195089 0.250000 -0.980786
v -0.195090 0.000000 -0.980785
v 0.000000 0.000000 -1.000000
v -0.382683 0.000000 -0.923880
v -0.555570 0.000000 -0.831470
v -0.707107 0.000000 -0.707107
v -0.831470 0.000000 -0.555570
v -0.923880 0.000000 -0.382683
v -0.980785 0.000000 -0.195090
v -1.000000 0.000000 -0.000000
v 0.980785 0.000000 -0.195091
v 1.000000 0.000000 -0.000001
v 0.923879 0.000000 -0.382684
v 0.831469 0.000000 -0.555571
v 0.707106 0.000000 -0.707108
v 0.555569 0.000000 -0.831470
v 0.382682 0.000000 -0.923880
v 0.195089 0.000000 -0.980786
v -0.195090 0.000000 -0.980785
v 0.000000 0.000000 -1.000000
v -0.382683 0.000000 -0.923880
v -0.555570 0.000000 -0.831470
v -0.707107 0.000000 -0.707107
v -0.831470 0.000000 -0.555570
v -0.923880 0.000000 -0.382683
v -0.980785 0.000000 -0.195090
v -1.000000 0.000000 -0.000000
v 0.980785 0.000000 -0.195091
v 1.000000 0.000000 -0.000001
v 0.923879 0.000000 -0.382684
v 0.831469 0.000000 -0.555571
v 0.707106 0.000000 -0.707108
v 0.555569 0.000000 -0.831470
v 0.382682 0.000000 -0.923880
v 0.195089 0.000000 -0.980786
v -0.195090 0.000000 -0.980785
v 0.000000 0.000000 -1.000000
v -0.382683 0.000000 -0.923880
v -0.555570 0.000000 -0.831470
v -0.707107 0.000000 -0.707107
v -0.831470 0.000000 -0.555570
v -0.923880 0.000000 -0.382683
v -0.980785 0.000000 -0.195090
v -1.000000 0.000000 -0.000000
v 0.980785 0.000000 -0.195091
v 1.000000 0.000000 -0.000001
v 0.923879 0.000000 -0.382684
v 0.831469 0.000000 -0.555571
v 0.707106 0.000000 -0.707108
v 0.555569 0.000000 -0.831470
v 0.382682 0.000000 -0.923880
v 0.195089 0.000000 -0.980786
v -0.174166 0.000000 -0.875592
v 0.000000 0.000000 -0.892746
v -0.341639 0.000000 -0.824790
v -0.495983 0.000000 -0.742291
v -0.631267 0.000000 -0.631267
v -0.742291 0.000000 -0.495983
v -0.824790 0.000000 -0.341639
v -0.875592 0.000000 -0.174166
v -0.920530 0.000000 -0.072028
v 0.875592 0.000000 -0.174167
v 0.920530 0.000000 -0.072028
v 0.824789 0.000000 -0.341640
v 0.742290 0.000000 -0.495984
v 0.631266 0.000000 -0.631267
v 0.495982 0.000000 -0.742292
v 0.341638 0.000000 -0.824790
v 0.174165 0.000000 -0.875592
v -0.174166 0.250000 -0.875592
v 0.000000 0.250000 -0.892746
v -0.341639 0.250000 -0.824790
v -0.495983 0.250000 -0.742291
v -0.631267 0.250000 -0.631267
v -0.742291 0.250000 -0.495983
v -0.824790 0.250000 -0.341639
v -0.875592 0.250000 -0.174166
v -0.920530 0.250000 -0.072028
v 0.875592 0.250000 -0.174167
v 0.920530 0.250000 -0.072028
v 0.824789 0.250000 -0.341640
v 0.742290 0.250000 -0.495984
v 0.631266 0.250000 -0.631267
v 0.495982 0.250000 -0.742292
v 0.341638 0.250000 -0.824790
v 0.174165 0.250000 -0.875592
vn 0.0000 0.0000 1.0000
vn 0.8819 0.0000 -0.4714
vn -0.6344 0.0000 -0.7730
vn 0.7730 0.0000 -0.6344
vn -0.7730 0.0000 -0.6344
vn 0.6344 0.0000 -0.7730
vn -0.8819 0.0000 -0.4714
vn 0.4714 0.0000 -0.8819
vn -0.9569 0.0000 -0.2903
vn 0.2903 0.0000 -0.9569
vn -0.9952 0.0000 -0.0980
vn -0.0980 0.0000 -0.9952
vn 0.0980 0.0000 -0.9952
vn 0.9952 0.0000 -0.0980
vn -0.2903 0.0000 -0.9569
vn 0.9569 0.0000 -0.2903
vn -0.4714 0.0000 -0.8819
vn 0.0000 -1.0000 0.0000
vn -0.8819 0.0000 0.4714
vn 0.6344 0.0000 0.7730
vn -0.7730 0.0000 0.6344
vn 0.7730 0.0000 0.6344
vn -0.6344 0.0000 0.7730
vn 0.8819 0.0000 0.4714
vn -0.4714 0.0000 0.8819
vn 0.9569 0.0000 0.2903
vn -0.2903 0.0000 0.9569
vn 0.9153 0.0000 0.4027
vn 0.0980 0.0000 0.9952
vn -0.0980 0.0000 0.9952
vn -0.9153 0.0000 0.4027
vn 0.2903 0.0000 0.9569
vn -0.9569 0.0000 0.2903
vn 0.4714 0.0000 0.8819
vn -0.0000 0.0000 -1.0000
vn 0.0000 1.0000 0.0000
usemtl None
s off
f 5//1 22//1 21//1 4//1
f 14//1 31//1 30//1 13//1
f 6//1 23//1 22//1 5//1
f 15//1 32//1 31//1 14//1
f 7//1 24//1 23//1 6//1
f 16//1 33//1 32//1 15//1
f 8//1 25//1 24//1 7//1
f 17//1 34//1 33//1 16//1
f 9//1 26//1 25//1 8//1
f 2//1 19//1 18//1 1//1
f 1//1 18//1 34//1 17//1
f 11//1 28//1 27//1 10//1
f 3//1 20//1 19//1 2//1
f 12//1 29//1 28//1 11//1
f 4//1 21//1 20//1 3//1
f 13//1 30//1 29//1 12//1
f 29//1 46//1 45//1 28//1
f 21//1 38//1 37//1 20//1
f 30//1 47//1 46//1 29//1
f 22//1 39//1 38//1 21//1
f 31//1 48//1 47//1 30//1
f 23//1 40//1 39//1 22//1
f 32//1 49//1 48//1 31//1
f 24//1 41//1 40//1 23//1
f 33//1 50//1 49//1 32//1
f 25//1 42//1 41//1 24//1
f 34//1 51//1 50//1 33//1
f 26//1 43//1 42//1 25//1
f 19//1 36//1 35//1 18//1
f 18//1 35//1 51//1 34//1
f 28//1 45//1 44//1 27//1
f 20//1 37//1 36//1 19//1
f 50//1 67//1 66//1 49//1
f 42//1 59//1 58//1 41//1
f 51//1 68//1 67//1 50//1
f 43//1 60//1 59//1 42//1
f 36//1 53//1 52//1 35//1
f 35//1 52//1 68//1 51//1
f 45//1 62//1 61//1 44//1
f 37//1 54//1 53//1 36//1
f 46//1 63//1 62//1 45//1
f 38//1 55//1 54//1 37//1
f 47//1 64//1 63//1 46//1
f 39//1 56//1 55//1 38//1
f 48//1 65//1 64//1 47//1
f 40//1 57//1 56//1 39//1
f 49//1 66//1 65//1 48//1
f 41//1 58//1 57//1 40//1
f 64//2 81//2 80//2 63//2
f 56//3 73//3 72//3 55//3
f 65//4 82//4 81//4 64//4
f 57//5 74//5 73//5 56//5
f 66//6 83//6 82//6 65//6
f 58//7 75//7 74//7 57//7
f 67//8 84//8 83//8 66//8
f 59//9 76//9 75//9 58//9
f 68//10 85//10 84//10 67//10
f 60//11 77//11 76//11 59//11
f 53//12 70//12 69//12 52//12
f 52//13 69//13 85//13 68//13
f 62//14 79//14 78//14 61//14
f 54//15 71//15 70//15 53//15
f 63//16 80//16 79//16 62//16
f 55//17 72//17 71//17 54//17
f 77//1 60//1 61//1 78//1
f 99//1 98//1 115//1 116//1
f 90//1 89//1 106//1 107//1
f 91//1 90//1 107//1 108//1
f 100//1 99//1 116//1 117//1
f 92//1 91//1 108//1 109//1
f 101//1 100//1 117//1 118//1
f 93//1 92//1 109//1 110//1
f 102//1 101//1 118//1 119//1
f 94//1 93//1 110//1 111//1
f 86//1 87//1 104//1 103//1
f 87//1 102//1 119//1 104//1
f 95//1 96//1 113//1 112//1
f 88//1 86//1 103//1 105//1
f 97//1 95//1 112//1 114//1
f 89//1 88//1 105//1 106//1
f 98//1 97//1 114//1 115//1
f 114//1 112//1 129//1 131//1
f 106//1 105//1 122//1 123//1
f 115//1 114//1 131//1 132//1
f 107//1 106//1 123//1 124//1
f 116//1 115//1 132//1 133//1
f 108//1 107//1 124//1 125//1
f 117//1 116//1 133//1 134//1
f 109//1 108//1 125//1 126//1
f 118//1 117//1 134//1 135//1
f 110//1 109//1 126//1 127//1
f 119//1 118//1 135//1 136//1
f 111//1 110//1 127//1 128//1
f 103//1 104//1 121//1 120//1
f 104//1 119//1 136//1 121//1
f 112//1 113//1 130//1 129//1
f 105//1 103//1 120//1 122//1
f 135//18 134//18 151//18 152//18
f 127//18 126//18 143//18 144//18
f 136//18 135//18 152//18 153//18
f 128//18 127//18 144//18 145//18
f 120//18 121//18 138//18 137//18
f 121//18 136//18 153//18 138//18
f 129//18 130//18 147//18 146//18
f 122//18 120//18 137//18 139//18
f 131//18 129//18 146//18 148//18
f 123//18 122//18 139//18 140//18
f 132//18 131//18 148//18 149//18
f 124//18 123//18 140//18 141//18
f 133//18 132//18 149//18 150//18
f 125//18 124//18 141//18 142//18
f 134//18 133//18 150//18 151//18
f 126//18 125//18 142//18 143//18
f 149//19 148//19 165//19 166//19
f 141//20 140//20 157//20 158//20
f 150//21 149//21 166//21 167//21
f 142//22 141//22 158//22 159//22
f 151//23 150//23 167//23 168//23
f 143//24 142//24 159//24 160//24
f 152//25 151//25 168//25 169//25
f 144//26 143//26 160//26 161//26
f 153//27 152//27 169//27 170//27
f 145//28 144//28 161//28 162//28
f 137//29 138//29 155//29 154//29
f 138//30 153//30 170//30 155//30
f 146//31 147//31 164//31 163//31
f 139//32 137//32 154//32 156//32
f 148//33 146//33 163//33 165//33
f 140//34 139//34 156//34 157//34
f 162//35 164//35 147//35 145//35
f 72//36 73//36 158//36 157//36
f 43//1 26//1 111//1 128//1
f 14//1 13//1 98//1 99//1
f 73//36 74//36 159//36 158//36
f 15//1 14//1 99//1 100//1
f 44//1 61//1 147//1 130//1
f 74//36 75//36 160//36 159//36
f 16//1 15//1 100//1 101//1
f 2//1 1//1 87//1 86//1
f 75//36 76//36 161//36 160//36
f 77//36 78//36 164//36 162//36
f 27//1 44//1 130//1 113//1
f 17//1 16//1 101//1 102//1
f 3//1 2//1 86//1 88//1
f 76//36 77//36 162//36 161//36
f 61//18 60//18 145//18 147//18
f 1//1 17//1 102//1 87//1
f 26//1 9//1 94//1 111//1
f 4//1 3//1 88//1 89//1
f 78//36 79//36 163//36 164//36
f 5//1 4//1 89//1 90//1
f 79//36 80//36 165//36 163//36
f 6//1 5//1 90//1 91//1
f 80//36 81//36 166//36 165//36
f 10//1 27//1 113//1 96//1
f 7//1 6//1 91//1 92//1
f 81//36 82//36 167//36 166//36
f 8//1 7//1 92//1 93//1
f 82//36 83//36 168//36 167//36
f 9//1 8//1 93//1 94//1
f 83//36 84//36 169//36 168//36
f 69//36 70//36 154//36 155//36
f 11//1 10//1 96//1 95//1
f 84//36 85//36 170//36 169//36
f 70//36 71//36 156//36 154//36
f 12//1 11//1 95//1 97//1
f 60//1 43//1 128//1 145//1
f 85//36 69//36 155//36 170//36
f 71//36 72//36 157//36 156//36
f 13//1 12//1 97//1 98//1
