# Blender v2.77 (sub 0) OBJ File: 'halfMoon.blend'
# www.blender.org
mtllib halfMoon.mtl
o HalfMoon_Circle
v 0.000000 0.000000 -1.000000
v -0.195090 0.000000 -0.980785
v -0.382683 0.000000 -0.923880
v -0.555570 0.000000 -0.831470
v -0.707107 0.000000 -0.707107
v -0.831470 0.000000 -0.555570
v -0.923880 0.000000 -0.382683
v -0.980785 0.000000 -0.195090
v -1.000000 0.000000 -0.000000
v 1.000000 0.000000 -0.000001
v 0.980785 0.000000 -0.195091
v 0.923879 0.000000 -0.382684
v 0.831469 0.000000 -0.555571
v 0.707106 0.000000 -0.707108
v 0.555569 0.000000 -0.831470
v 0.382682 0.000000 -0.923880
v 0.195089 0.000000 -0.980786
v 0.000000 0.000000 -1.000000
v -0.195090 0.000000 -0.980785
v -0.382683 0.000000 -0.923880
v -0.555570 0.000000 -0.831470
v -0.707107 0.000000 -0.707107
v -0.831470 0.000000 -0.555570
v -0.923880 0.000000 -0.382683
v -0.980785 0.000000 -0.195090
v -1.000000 0.000000 -0.000000
v 1.000000 0.000000 -0.000001
v 0.980785 0.000000 -0.195091
v 0.923879 0.000000 -0.382684
v 0.831469 0.000000 -0.555571
v 0.707106 0.000000 -0.707108
v 0.555569 0.000000 -0.831470
v 0.382682 0.000000 -0.923880
v 0.195089 0.000000 -0.980786
v 0.000000 0.000000 -1.000000
v -0.195090 0.000000 -0.980785
v -0.382683 0.000000 -0.923880
v -0.555570 0.000000 -0.831470
v -0.707107 0.000000 -0.707107
v -0.831470 0.000000 -0.555570
v -0.923880 0.000000 -0.382683
v -0.980785 0.000000 -0.195090
v -1.000000 0.000000 -0.000000
v 1.000000 0.000000 -0.000001
v 0.980785 0.000000 -0.195091
v 0.923879 0.000000 -0.382684
v 0.831469 0.000000 -0.555571
v 0.707106 0.000000 -0.707108
v 0.555569 0.000000 -0.831470
v 0.382682 0.000000 -0.923880
v 0.195089 0.000000 -0.980786
v 0.000000 0.000000 -1.000000
v -0.195090 0.000000 -0.980785
v -0.382683 0.000000 -0.923880
v -0.555570 0.000000 -0.831470
v -0.707107 0.000000 -0.707107
v -0.831470 0.000000 -0.555570
v -0.923880 0.000000 -0.382683
v -0.980785 0.000000 -0.195090
v -1.000000 0.000000 -0.000000
v 1.000000 0.000000 -0.000001
v 0.980785 0.000000 -0.195091
v 0.923879 0.000000 -0.382684
v 0.831469 0.000000 -0.555571
v 0.707106 0.000000 -0.707108
v 0.555569 0.000000 -0.831470
v 0.382682 0.000000 -0.923880
v 0.195089 0.000000 -0.980786
v 0.000000 0.250000 -1.000000
v -0.195090 0.250000 -0.980785
v -0.382683 0.250000 -0.923880
v -0.555570 0.250000 -0.831470
v -0.707107 0.250000 -0.707107
v -0.831470 0.250000 -0.555570
v -0.923880 0.250000 -0.382683
v -0.980785 0.250000 -0.195090
v -1.000000 0.250000 -0.000000
v 1.000000 0.250000 -0.000001
v 0.980785 0.250000 -0.195091
v 0.923879 0.250000 -0.382684
v 0.831469 0.250000 -0.555571
v 0.707106 0.250000 -0.707108
v 0.555569 0.250000 -0.831470
v 0.382682 0.250000 -0.923880
v 0.195089 0.250000 -0.980786
vn 0.0000 0.0000 1.0000
vn -0.8819 0.0000 0.4714
vn 0.6344 0.0000 0.7730
vn -0.7730 0.0000 0.6344
vn 0.7730 0.0000 0.6344
vn -0.6344 0.0000 0.7730
vn 0.8819 0.0000 0.4714
vn -0.4714 0.0000 0.8819
vn 0.9569 0.0000 0.2903
vn -0.2903 0.0000 0.9569
vn 0.9952 0.0000 0.0980
vn 0.0980 0.0000 0.9952
vn -0.0980 0.0000 0.9952
vn -0.9952 0.0000 0.0980
vn 0.2903 0.0000 0.9569
vn -0.9569 0.0000 0.2903
vn 0.4714 0.0000 0.8819
vn -0.0000 0.0000 -1.0000
vn 0.0000 -1.0000 -0.0000
vn 0.0000 1.0000 0.0000
usemtl None
s off
f 5//1 4//1 21//1 22//1
f 14//1 13//1 30//1 31//1
f 6//1 5//1 22//1 23//1
f 15//1 14//1 31//1 32//1
f 7//1 6//1 23//1 24//1
f 16//1 15//1 32//1 33//1
f 8//1 7//1 24//1 25//1
f 17//1 16//1 33//1 34//1
f 9//1 8//1 25//1 26//1
f 2//1 1//1 18//1 19//1
f 1//1 17//1 34//1 18//1
f 11//1 10//1 27//1 28//1
f 3//1 2//1 19//1 20//1
f 12//1 11//1 28//1 29//1
f 4//1 3//1 20//1 21//1
f 13//1 12//1 29//1 30//1
f 29//1 28//1 45//1 46//1
f 21//1 20//1 37//1 38//1
f 30//1 29//1 46//1 47//1
f 22//1 21//1 38//1 39//1
f 31//1 30//1 47//1 48//1
f 23//1 22//1 39//1 40//1
f 32//1 31//1 48//1 49//1
f 24//1 23//1 40//1 41//1
f 33//1 32//1 49//1 50//1
f 25//1 24//1 41//1 42//1
f 34//1 33//1 50//1 51//1
f 26//1 25//1 42//1 43//1
f 19//1 18//1 35//1 36//1
f 18//1 34//1 51//1 35//1
f 28//1 27//1 44//1 45//1
f 20//1 19//1 36//1 37//1
f 50//1 49//1 66//1 67//1
f 42//1 41//1 58//1 59//1
f 51//1 50//1 67//1 68//1
f 43//1 42//1 59//1 60//1
f 36//1 35//1 52//1 53//1
f 35//1 51//1 68//1 52//1
f 45//1 44//1 61//1 62//1
f 37//1 36//1 53//1 54//1
f 46//1 45//1 62//1 63//1
f 38//1 37//1 54//1 55//1
f 47//1 46//1 63//1 64//1
f 39//1 38//1 55//1 56//1
f 48//1 47//1 64//1 65//1
f 40//1 39//1 56//1 57//1
f 49//1 48//1 65//1 66//1
f 41//1 40//1 57//1 58//1
f 64//2 63//2 80//2 81//2
f 56//3 55//3 72//3 73//3
f 65//4 64//4 81//4 82//4
f 57//5 56//5 73//5 74//5
f 66//6 65//6 82//6 83//6
f 58//7 57//7 74//7 75//7
f 67//8 66//8 83//8 84//8
f 59//9 58//9 75//9 76//9
f 68//10 67//10 84//10 85//10
f 60//11 59//11 76//11 77//11
f 53//12 52//12 69//12 70//12
f 52//13 68//13 85//13 69//13
f 62//14 61//14 78//14 79//14
f 54//15 53//15 70//15 71//15
f 63//16 62//16 79//16 80//16
f 55//17 54//17 71//17 72//17
f 77//18 78//18 61//18 60//18
f 70//19 69//19 85//19 84//19 83//19 82//19 81//19 80//19 79//19 78//19 77//19 76//19 75//19 74//19 73//19 72//19 71//19
f 53//20 54//20 55//20 56//20 57//20 58//20 59//20 60//20 61//20 62//20 63//20 64//20 65//20 66//20 67//20 68//20 52//20
