# Blender v2.77 (sub 0) OBJ File: 'moon.blend'
# www.blender.org
mtllib moon.mtl
o Circle_Circle.001
v 0.000000 0.000000 -1.000000
v -0.195090 0.000000 -0.980785
v -0.382683 0.000000 -0.923880
v -0.555570 0.000000 -0.831470
v -0.707107 0.000000 -0.707107
v -0.831470 0.000000 -0.555570
v -0.923880 0.000000 -0.382683
v -0.980785 0.000000 -0.195090
v -1.000000 0.000000 -0.000000
v -0.980785 0.000000 0.195090
v -0.923880 0.000000 0.382683
v 0.912122 0.436453 0.164183
v -0.912122 0.436453 0.164184
v -0.859201 0.436453 0.006535
v -0.773260 0.436453 -0.138755
v -0.657604 0.436453 -0.266102
v -0.382683 0.436453 -0.923880
v -0.516676 0.436453 -0.370614
v -0.355893 0.436453 -0.448273
v -0.181432 0.436453 -0.496095
v 0.000000 0.436453 -0.512243
v 0.195089 0.436453 -0.980786
v 0.923880 0.000000 0.382683
v 0.980785 0.000000 0.195089
v 1.000000 0.000000 -0.000001
v 0.980785 0.000000 -0.195091
v 0.923879 0.000000 -0.382684
v 0.831469 0.000000 -0.555571
v 0.707106 0.000000 -0.707108
v 0.555569 0.000000 -0.831470
v 0.382682 0.000000 -0.923880
v 0.195089 0.000000 -0.980786
v -0.555570 0.436453 -0.831470
v 0.000000 0.000000 -0.512243
v -0.181432 0.000000 -0.496095
v -0.355893 0.000000 -0.448273
v -0.516676 0.000000 -0.370614
v -0.657604 0.000000 -0.266102
v -0.773260 0.000000 -0.138755
v -0.859201 0.000000 0.006535
v -0.912122 0.000000 0.164184
v 0.000000 0.436453 -1.000000
v 0.382682 0.436453 -0.923880
v 0.555569 0.436453 -0.831470
v 0.707106 0.436453 -0.707108
v 0.831469 0.436453 -0.555571
v 0.923879 0.436453 -0.382684
v 0.980785 0.436453 -0.195091
v 1.000000 0.436453 -0.000001
v 0.980785 0.436453 0.195089
v 0.923880 0.436453 0.382683
v -0.923880 0.436453 0.382683
v -0.980785 0.436453 0.195090
v -1.000000 0.436453 -0.000000
v -0.980785 0.436453 -0.195090
v -0.923880 0.436453 -0.382683
v -0.831470 0.436453 -0.555570
v -0.195090 0.436453 -0.980785
v 0.912122 0.000000 0.164183
v 0.859200 0.000000 0.006534
v 0.773260 0.000000 -0.138756
v 0.657603 0.000000 -0.266103
v 0.516675 0.000000 -0.370615
v 0.355891 0.000000 -0.448274
v 0.181431 0.000000 -0.496095
v -0.707107 0.436453 -0.707107
v 0.859200 0.436453 0.006534
v 0.773260 0.436453 -0.138756
v 0.657603 0.436453 -0.266103
v 0.516675 0.436453 -0.370615
v 0.355891 0.436453 -0.448274
v 0.181431 0.436453 -0.496095
vn 0.0000 -1.0000 0.0000
vn 0.0000 1.0000 -0.0000
vn 0.9480 0.0000 0.3182
vn 0.9569 0.0000 -0.2903
vn 0.8819 0.0000 -0.4714
vn -0.0980 0.0000 -0.9952
vn 0.7730 0.0000 -0.6344
vn -0.2903 0.0000 -0.9569
vn 0.6344 0.0000 -0.7730
vn -0.9986 0.0000 0.0537
vn -0.4714 0.0000 -0.8819
vn 0.4714 0.0000 -0.8819
vn 0.9986 0.0000 0.0537
vn -0.6344 0.0000 -0.7730
vn 0.2903 0.0000 -0.9569
vn -0.9480 0.0000 0.3182
vn -0.7730 0.0000 -0.6344
vn 0.0980 0.0000 -0.9952
vn -0.8607 0.0000 0.5091
vn -0.8819 0.0000 -0.4714
vn 0.0887 0.0000 0.9961
vn -0.7403 0.0000 0.6723
vn -0.9569 0.0000 -0.2903
vn 0.2644 0.0000 0.9644
vn -0.5957 0.0000 0.8032
vn -0.9952 0.0000 -0.0980
vn 0.4349 0.0000 0.9005
vn -0.4349 0.0000 0.9005
vn -0.9952 0.0000 0.0980
vn 0.5957 0.0000 0.8032
vn -0.2644 0.0000 0.9644
vn 0.9569 0.0000 0.2903
vn -0.9569 0.0000 0.2903
vn 0.7403 0.0000 0.6723
vn -0.0886 0.0000 0.9961
vn 0.9952 0.0000 0.0980
vn 0.8607 0.0000 0.5091
vn 0.9952 0.0000 -0.0980
usemtl None
s off
f 2//1 1//1 32//1 31//1 30//1 29//1 28//1 27//1 26//1 25//1 24//1 23//1 59//1 60//1 61//1 62//1 63//1 64//1 65//1 34//1 35//1 36//1 37//1 38//1 39//1 40//1 41//1 11//1 10//1 9//1 8//1 7//1 6//1 5//1 4//1 3//1
f 58//2 17//2 33//2 66//2 57//2 56//2 55//2 54//2 53//2 52//2 13//2 14//2 15//2 16//2 18//2 19//2 20//2 21//2 72//2 71//2 70//2 69//2 68//2 67//2 12//2 51//2 50//2 49//2 48//2 47//2 46//2 45//2 44//2 43//2 22//2 42//2
f 41//3 40//3 14//3 13//3
f 26//4 27//4 47//4 48//4
f 27//5 28//5 46//5 47//5
f 1//6 2//6 58//6 42//6
f 28//7 29//7 45//7 46//7
f 2//8 3//8 17//8 58//8
f 29//9 30//9 44//9 45//9
f 59//10 23//10 51//10 12//10
f 3//11 4//11 33//11 17//11
f 30//12 31//12 43//12 44//12
f 11//13 41//13 13//13 52//13
f 4//14 5//14 66//14 33//14
f 31//15 32//15 22//15 43//15
f 60//16 59//16 12//16 67//16
f 5//17 6//17 57//17 66//17
f 32//18 1//18 42//18 22//18
f 61//19 60//19 67//19 68//19
f 6//20 7//20 56//20 57//20
f 35//21 34//21 21//21 20//21
f 62//22 61//22 68//22 69//22
f 7//23 8//23 55//23 56//23
f 36//24 35//24 20//24 19//24
f 63//25 62//25 69//25 70//25
f 8//26 9//26 54//26 55//26
f 37//27 36//27 19//27 18//27
f 64//28 63//28 70//28 71//28
f 9//29 10//29 53//29 54//29
f 38//30 37//30 18//30 16//30
f 65//31 64//31 71//31 72//31
f 23//32 24//32 50//32 51//32
f 10//33 11//33 52//33 53//33
f 39//34 38//34 16//34 15//34
f 34//35 65//35 72//35 21//35
f 24//36 25//36 49//36 50//36
f 40//37 39//37 15//37 14//37
f 25//38 26//38 48//38 49//38
