# Blender v2.77 (sub 0) OBJ File: 'quarterCircle.blend'
# www.blender.org
mtllib quarterCircle.mtl
o quarterCircle
v 0.670492 -0.023619 -0.808383
v 0.670492 0.020139 -0.808383
v -0.329508 -0.023619 0.191616
v -0.329508 0.020139 0.191616
v -0.310293 -0.023619 -0.003474
v -0.310293 0.020139 -0.003474
v -0.253387 -0.023619 -0.191067
v -0.253387 0.020139 -0.191067
v -0.160977 -0.023619 -0.363954
v -0.160977 0.020139 -0.363954
v -0.036613 -0.023619 -0.515490
v -0.036613 0.020139 -0.515490
v 0.114923 -0.023619 -0.639853
v 0.114923 0.020139 -0.639853
v 0.287810 -0.023619 -0.732263
v 0.287810 0.020139 -0.732263
v 0.475404 -0.023619 -0.789168
v 0.475404 0.020139 -0.789168
v 0.670492 -0.023619 -0.662597
v 0.670492 0.020139 -0.662597
v -0.183721 -0.023619 0.191616
v -0.183721 0.020139 0.191616
v -0.167308 -0.023619 0.024967
v -0.167308 0.020139 0.024967
v -0.118698 -0.023619 -0.135277
v -0.118698 0.020139 -0.135277
v -0.039760 -0.023619 -0.282959
v -0.039760 0.020139 -0.282959
v 0.066473 -0.023619 -0.412404
v 0.066473 0.020139 -0.412404
v 0.195918 -0.023619 -0.518636
v 0.195918 0.020139 -0.518636
v 0.343600 -0.023619 -0.597574
v 0.343600 0.020139 -0.597574
v 0.503845 -0.023619 -0.646183
v 0.503845 0.020139 -0.646183
v -0.329508 0.020139 0.191616
v -0.329508 -0.023619 0.191616
v -0.310293 -0.023619 -0.003474
v -0.310293 0.020139 -0.003474
v -0.253387 -0.023619 -0.191067
v -0.253387 0.020139 -0.191067
v -0.160977 -0.023619 -0.363954
v -0.160977 0.020139 -0.363954
v -0.036613 -0.023619 -0.515490
v -0.036613 0.020139 -0.515490
v 0.114923 -0.023619 -0.639853
v 0.114923 0.020139 -0.639853
v 0.287810 -0.023619 -0.732263
v 0.287810 0.020139 -0.732263
v 0.475404 0.020139 -0.789168
v -0.183721 0.020139 0.191616
v -0.183721 -0.023619 0.191616
v -0.167308 -0.023619 0.024967
v -0.167308 0.020139 0.024967
v -0.118698 -0.023619 -0.135277
v -0.118698 0.020139 -0.135277
v -0.039760 -0.023619 -0.282959
v -0.039760 0.020139 -0.282959
v 0.066473 -0.023619 -0.412404
v 0.066473 0.020139 -0.412404
v 0.195918 -0.023619 -0.518636
v 0.195918 0.020139 -0.518636
v 0.343600 -0.023619 -0.597574
v 0.343600 0.020139 -0.597574
v 0.503845 -0.023619 -0.646183
v 0.503845 0.020139 -0.646183
vn -0.9952 0.0000 -0.0980
vn -0.9569 0.0000 -0.2903
vn -0.8819 0.0000 -0.4714
vn -0.7730 0.0000 -0.6344
vn -0.6344 0.0000 -0.7730
vn -0.4714 0.0000 -0.8819
vn -0.2903 0.0000 -0.9569
vn -0.0980 0.0000 -0.9952
vn 0.9952 0.0000 0.0980
vn 0.9569 0.0000 0.2903
vn 0.8819 0.0000 0.4714
vn 0.7730 0.0000 0.6344
vn 0.6344 0.0000 0.7730
vn 0.4714 0.0000 0.8819
vn 0.2903 0.0000 0.9569
vn 0.0980 0.0000 0.9952
vn 0.0000 -1.0000 0.0000
vn 0.0000 1.0000 0.0000
vn -0.0000 0.0000 1.0000
vn 0.0000 0.0000 -1.0000
vn 1.0000 0.0000 0.0000
usemtl None
s off
f 3//1 4//1 6//1 5//1
f 5//2 6//2 8//2 7//2
f 7//3 8//3 10//3 9//3
f 9//4 10//4 12//4 11//4
f 11//5 12//5 14//5 13//5
f 13//6 14//6 16//6 15//6
f 15//7 16//7 18//7 17//7
f 17//8 18//8 2//8 1//8
f 21//9 23//9 24//9 22//9
f 23//10 25//10 26//10 24//10
f 25//11 27//11 28//11 26//11
f 27//12 29//12 30//12 28//12
f 29//13 31//13 32//13 30//13
f 31//14 33//14 34//14 32//14
f 33//15 35//15 36//15 34//15
f 35//16 19//16 20//16 36//16
f 5//17 23//17 21//17 3//17
f 4//18 22//18 24//18 6//18
f 7//17 25//17 23//17 5//17
f 6//18 24//18 26//18 8//18
f 9//17 27//17 25//17 7//17
f 8//18 26//18 28//18 10//18
f 11//17 29//17 27//17 9//17
f 10//18 28//18 30//18 12//18
f 13//17 31//17 29//17 11//17
f 12//18 30//18 32//18 14//18
f 15//17 33//17 31//17 13//17
f 14//18 32//18 34//18 16//18
f 17//17 35//17 33//17 15//17
f 16//18 34//18 36//18 18//18
f 1//17 19//17 35//17 17//17
f 18//18 36//18 20//18 2//18
f 4//17 6//17 8//17 10//17 12//17 14//17 16//17 18//17 2//17 20//17 36//17 34//17 32//17 30//17 28//17 26//17 24//17 22//17
f 4//19 3//19 21//19 22//19
f 38//9 39//9 40//9 37//9
f 39//10 41//10 42//10 40//10
f 41//11 43//11 44//11 42//11
f 43//12 45//12 46//12 44//12
f 45//13 47//13 48//13 46//13
f 47//14 49//14 50//14 48//14
f 53//1 52//1 55//1 54//1
f 54//2 55//2 57//2 56//2
f 56//3 57//3 59//3 58//3
f 58//4 59//4 61//4 60//4
f 60//5 61//5 63//5 62//5
f 62//6 63//6 65//6 64//6
f 64//7 65//7 67//7 66//7
f 39//18 38//18 53//18 54//18
f 37//17 40//17 55//17 52//17
f 41//18 39//18 54//18 56//18
f 40//17 42//17 57//17 55//17
f 43//18 41//18 56//18 58//18
f 42//17 44//17 59//17 57//17
f 45//18 43//18 58//18 60//18
f 44//17 46//17 61//17 59//17
f 47//18 45//18 60//18 62//18
f 46//17 48//17 63//17 61//17
f 49//18 47//18 62//18 64//18
f 48//17 50//17 65//17 63//17
f 50//17 51//17 67//17 65//17
f 37//20 52//20 53//20 38//20
f 35//16 19//16 20//16 36//16 66//16 67//16
f 19//21 1//21 2//21 20//21
