# Blender v2.77 (sub 0) OBJ File: 'triangleHL2.blend'
# www.blender.org
mtllib triangleHL2.mtl
o triangleHL_Cube.002
v -0.527269 0.943816 1.666682
v -0.527269 1.056132 1.666682
v 0.430516 0.943816 0.208291
v 0.429103 1.056132 0.208291
v 1.387051 0.943816 1.666682
v 1.387051 1.056132 1.666682
v 0.429266 0.943816 0.208291
v 0.430678 1.056132 0.208291
v -0.527269 0.943816 1.666682
v -0.527269 1.056132 1.666682
v 0.429103 1.056132 0.208291
v 0.429266 0.943816 0.208291
v 1.387051 0.943816 1.666682
v 1.387051 1.056132 1.666682
v -0.236386 1.056132 1.437885
v -0.128589 1.056132 1.569076
v -0.482848 1.056132 1.645760
v -0.253820 1.056132 1.488088
v -0.239456 1.056132 1.530648
v -0.195481 1.056132 1.559088
v -0.128589 0.943816 1.569076
v -0.236373 0.943817 1.437890
v -0.482848 0.943816 1.645760
v -0.195480 0.943817 1.559088
v -0.239452 0.943817 1.530650
v -0.253812 0.943817 1.488091
v 0.512943 1.056131 0.525056
v 0.345551 1.056132 0.525101
v 0.429121 1.056132 0.248078
v 0.474524 1.056132 0.484857
v 0.429222 1.056132 0.470750
v 0.383933 1.056132 0.484881
v 1.096021 0.943816 1.437972
v 0.988333 0.943816 1.569110
v 1.342621 0.943816 1.645770
v 1.113496 0.943816 1.488158
v 1.099168 0.943816 1.530703
v 1.055216 0.943816 1.559130
v 0.345678 0.943816 0.525097
v 0.513069 0.943816 0.525061
v 0.429278 0.943816 0.248078
v 0.384063 0.943816 0.484879
v 0.429354 0.943816 0.470750
v 0.474655 0.943816 0.484860
v 0.988333 1.056131 1.569110
v 1.096008 1.056131 1.437977
v 1.342621 1.056131 1.645770
v 1.055215 1.056131 1.559130
v 1.099164 1.056131 1.530704
v 1.113489 1.056131 1.488161
vn -0.8360 -0.0053 -0.5487
vn 0.0000 0.0000 -1.0000
vn 0.8360 -0.0053 -0.5487
vn 0.0000 0.0000 1.0000
vn 0.0000 -1.0000 -0.0000
vn -0.8428 -0.0005 0.5382
vn 0.0000 1.0000 0.0001
vn 0.0000 1.0000 0.0000
vn 0.8432 0.0005 0.5376
vn -0.7230 -0.0008 0.6909
vn -0.2974 -0.0003 0.9548
vn 0.2978 0.0003 0.9546
vn 0.7234 0.0008 0.6904
vn -0.1476 0.0000 -0.9890
vn -0.5431 -0.0000 -0.8397
vn -0.9477 -0.0000 -0.3191
vn -0.9444 -0.0001 0.3289
vn 0.1477 -0.0000 -0.9890
vn 0.5430 0.0000 -0.8397
vn 0.9475 0.0000 -0.3197
vn 0.9446 0.0001 0.3281
usemtl None
s off
f 1//1 2//1 4//1 3//1
f 3//2 4//2 8//2 7//2
f 7//3 8//3 6//3 5//3
f 5//4 6//4 2//4 1//4
f 34//2 21//2 16//2 45//2
f 13//5 35//5 33//5 40//5 41//5 12//5
f 12//5 41//5 39//5 22//5 23//5 9//5
f 40//6 33//6 46//6 27//6
f 7//4 12//4 3//4
f 2//4 10//4 11//4 4//4
f 6//4 14//4 10//4 2//4
f 3//7 12//7 9//7 1//7
f 5//4 13//4 12//4 7//4
f 4//4 11//4 8//4
f 1//4 9//4 13//4 5//4
f 8//8 11//8 14//8 6//8
f 11//8 29//8 27//8 46//8 47//8 14//8
f 10//8 17//8 15//8 28//8 29//8 11//8
f 22//9 39//9 28//9 15//9
f 9//5 23//5 21//5 34//5 35//5 13//5
f 15//8 17//8 18//8
f 18//8 17//8 19//8
f 19//8 17//8 20//8
f 20//8 17//8 16//8
f 21//5 23//5 24//5
f 24//5 23//5 25//5
f 25//5 23//5 26//5
f 26//5 23//5 22//5
f 27//8 29//8 30//8
f 30//8 29//8 31//8
f 31//8 29//8 32//8
f 32//8 29//8 28//8
f 33//5 35//5 36//5
f 36//5 35//5 37//5
f 37//5 35//5 38//5
f 38//5 35//5 34//5
f 39//5 41//5 42//5
f 42//5 41//5 43//5
f 43//5 41//5 44//5
f 44//5 41//5 40//5
f 45//8 47//8 48//8
f 48//8 47//8 49//8
f 49//8 47//8 50//8
f 50//8 47//8 46//8
f 27//10 30//10 44//10 40//10
f 30//11 31//11 43//11 44//11
f 31//12 32//12 42//12 43//12
f 32//13 28//13 39//13 42//13
f 45//14 48//14 38//14 34//14
f 48//15 49//15 37//15 38//15
f 49//16 50//16 36//16 37//16
f 50//17 46//17 33//17 36//17
f 21//18 24//18 20//18 16//18
f 24//19 25//19 19//19 20//19
f 25//20 26//20 18//20 19//20
f 26//21 22//21 15//21 18//21
f 14//8 47//8 45//8 16//8 17//8 10//8
